<?xml version="1.0" standalone="no"?>
<!DOCTYPE svg PUBLIC "-//W3C//DTD SVG 20010904//EN"
 "http://www.w3.org/TR/2001/REC-SVG-20010904/DTD/svg10.dtd">
<svg version="1.0" xmlns="http://www.w3.org/2000/svg"
 width="700.000000pt" height="700.000000pt" viewBox="0 0 700.000000 700.000000"
 preserveAspectRatio="xMidYMid meet">
<metadata>
Created by potrace 1.11, written by Peter Selinger 2001-2013
</metadata>
<g transform="translate(0.000000,700.000000) scale(0.100000,-0.100000)"
fill="#000000" stroke="none">
<path d="M3338 6815 c-1 -1 -34 -6 -73 -9 -146 -13 -171 -17 -211 -36 -66 -32
-74 -61 -74 -265 0 -96 -3 -175 -7 -176 -60 -6 -295 -94 -427 -160 l-139 -69
-116 115 c-141 140 -150 146 -204 148 -33 1 -53 -6 -92 -33 -150 -101 -357
-299 -493 -469 -93 -117 -103 -135 -100 -191 2 -43 7 -50 131 -177 l130 -133
-65 -127 c-63 -126 -122 -272 -153 -385 l-16 -58 -177 0 c-152 0 -182 -3 -212
-18 -43 -23 -67 -69 -75 -147 -4 -33 -11 -89 -15 -125 -9 -67 -6 -476 3 -520
3 -14 8 -52 12 -85 4 -33 16 -75 27 -93 35 -56 59 -63 254 -65 l176 -2 44
-132 c40 -122 136 -337 181 -408 l20 -30 -105 -105 c-201 -203 -204 -214 -79
-372 141 -179 281 -317 461 -455 139 -107 167 -101 339 72 l122 122 54 -28
c62 -33 96 -36 147 -12 92 45 91 167 -4 228 -228 148 -230 148 -408 -27 -119
-117 -124 -120 -146 -106 -41 27 -219 201 -285 277 l-63 74 123 121 c168 168
171 179 71 346 -100 167 -163 321 -215 520 -33 127 -58 165 -120 179 -19 4
-103 7 -187 7 l-152 -1 -7 35 c-7 40 -8 379 0 425 3 17 5 39 6 50 1 19 7 20
154 17 242 -6 269 9 307 168 41 172 127 386 203 507 76 122 90 167 68 226 -5
13 -62 76 -125 140 -64 64 -116 119 -116 123 0 31 334 364 366 364 4 0 59 -51
123 -113 165 -162 186 -166 344 -73 168 99 381 186 532 216 81 17 131 44 152
83 14 26 17 61 18 204 1 95 5 176 9 180 9 10 383 13 451 4 l50 -6 1 -160 c0
-88 4 -174 8 -191 14 -61 68 -92 216 -125 133 -29 327 -111 485 -204 109 -65
156 -73 210 -40 17 10 80 67 140 127 l110 108 80 -68 c91 -78 263 -256 278
-289 8 -19 -4 -35 -112 -144 -162 -164 -163 -171 -56 -353 95 -161 187 -393
211 -530 10 -60 43 -113 82 -132 31 -16 62 -19 205 -19 161 1 167 0 168 -20 1
-11 3 -31 5 -45 5 -36 5 -371 0 -395 -3 -11 -5 -30 -5 -42 -1 -23 -2 -23 -155
-23 -181 0 -205 -4 -245 -39 -26 -22 -36 -47 -70 -166 -62 -222 -106 -328
-209 -502 -64 -109 -76 -153 -57 -200 8 -18 66 -85 129 -149 64 -64 116 -118
116 -119 0 -19 -242 -269 -316 -326 l-51 -39 -114 112 c-63 62 -129 121 -148
129 -44 22 -90 16 -143 -18 -24 -15 -63 -38 -88 -51 -78 -42 -110 -83 -110
-142 0 -66 45 -114 117 -125 32 -4 50 0 97 25 l57 31 129 -130 c177 -178 190
-180 370 -40 120 94 314 287 405 404 38 50 72 92 76 95 3 3 12 22 19 42 24 66
5 99 -135 241 l-125 127 29 47 c68 111 179 375 196 464 4 19 10 40 14 47 4 8
63 12 185 12 203 2 224 8 255 75 29 61 45 214 45 440 1 250 -18 429 -51 473
-39 54 -71 62 -260 62 l-172 0 -21 73 c-34 118 -108 297 -164 400 l-54 96 119
118 c66 65 126 132 134 149 12 27 14 57 6 106 0 4 -35 51 -78 105 -132 170
-290 328 -450 449 -108 83 -117 87 -171 79 -42 -6 -57 -18 -177 -135 l-130
-129 -85 47 c-104 56 -288 132 -395 162 -44 12 -82 24 -85 27 -2 2 -5 85 -6
184 l-1 180 -30 37 c-17 20 -34 37 -39 37 -5 1 -18 4 -29 7 -11 4 -47 10 -80
14 -33 3 -71 8 -85 10 -31 6 -407 14 -412 9z"/>
<path d="M3414 4311 c-54 -24 -82 -61 -156 -201 -33 -63 -124 -236 -203 -385
-78 -148 -146 -285 -150 -302 -7 -33 -13 -1024 -15 -2223 0 -683 0 -681 52
-785 58 -114 186 -207 318 -231 54 -10 383 -11 462 -2 184 22 330 148 380 327
17 63 18 124 13 1376 -3 721 -7 1364 -8 1430 l-3 121 -128 244 c-71 135 -139
263 -151 285 -12 22 -50 93 -84 158 -35 64 -76 131 -93 147 -60 61 -155 77
-234 41z m151 -416 c32 -60 75 -141 95 -180 100 -188 120 -225 120 -229 0 -3
-126 -5 -280 -5 l-280 0 21 42 c46 91 232 443 246 465 8 13 16 22 17 20 2 -1
29 -52 61 -113z m276 -702 c1 -60 8 -1441 9 -2005 1 -650 2 -637 -56 -692 -53
-50 -82 -56 -294 -56 -220 0 -257 8 -308 63 -50 53 -50 54 -47 771 2 369 4
958 5 1309 l1 637 345 0 344 0 1 -27z"/>
</g>
</svg>
